<?xml version="1.0" encoding="UTF-8"?>
<svg xmlns="http://www.w3.org/2000/svg" xmlns:xlink="http://www.w3.org/1999/xlink" width="64px" height="64px" viewBox="0 0 64 64" version="1.1">
<defs>
<linearGradient id="linear0" gradientUnits="userSpaceOnUse" x1="312.53" y1="177.96" x2="213.51" y2="231.86" gradientTransform="matrix(0.123322,0.0204157,-0.0204157,0.123322,5.793751,-4.733753)">
<stop offset="0.28" style="stop-color:rgb(97.647059%,92.54902%,65.882353%);stop-opacity:1;"/>
<stop offset="1" style="stop-color:rgb(97.647059%,83.529412%,36.470588%);stop-opacity:1;"/>
</linearGradient>
</defs>
<g id="surface1">
<path style=" stroke:none;fill-rule:nonzero;fill:rgb(89.411765%,95.294118%,98.039216%);fill-opacity:1;" d="M 50.785156 4.753906 L 50.894531 8.527344 C 51.304688 8.597656 53.894531 7.984375 53.972656 8.234375 C 53.589844 10.746094 51.390625 19.375 51.261719 20.832031 C 51.046875 23.324219 53.027344 45.144531 53.238281 49.835938 L 52.910156 50.015625 L 14.96875 55.070312 C 14.605469 55.234375 13.390625 59.363281 13.140625 59.320312 C 12.804688 58.777344 13.148438 55.296875 12.917969 55.21875 L 9.953125 55.621094 L 12.882812 42.289062 L 10.980469 14.089844 C 23.652344 12.207031 36.390625 10.566406 49.101562 8.855469 C 49.429688 8.710938 50.335938 5.289062 50.785156 4.753906 Z M 50.785156 4.753906 "/>
<path style=" stroke:none;fill-rule:nonzero;fill:rgb(66.666667%,87.058824%,94.509804%);fill-opacity:1;" d="M 16.691406 51.191406 C 17.042969 50.996094 22.261719 50.292969 23.175781 50.164062 C 32.449219 48.859375 41.765625 47.816406 51.042969 46.539062 C 51.007812 41.621094 49.15625 23.871094 49.433594 20.757812 C 49.46875 20.351562 50.636719 14.339844 50.824219 13.617188 C 50.960938 13.082031 50.976562 12.6875 51.265625 12.117188 C 52.027344 10.601562 53.925781 9.65625 50.640625 11.421875 C 50.347656 8.171875 50.445312 8.832031 53.679688 8.453125 L 51.046875 20.90625 C 51.507812 30.488281 52.222656 40.054688 53.023438 49.617188 L 51.082031 50.019531 L 14.972656 54.925781 L 14.863281 54.742188 C 15.285156 54.027344 16.089844 51.527344 16.695312 51.191406 Z M 16.691406 51.191406 "/>
<path style=" stroke:none;fill-rule:nonzero;fill:rgb(66.666667%,87.058824%,94.509804%);fill-opacity:1;" d="M 47.015625 12.738281 C 46.796875 12.808594 43.84375 13.003906 43.097656 13.105469 C 33.09375 14.453125 23.109375 15.914062 13.105469 17.242188 C 13.089844 21.632812 14.929688 40.109375 14.714844 42.4375 C 14.589844 43.796875 13.179688 48.871094 13.105469 51.042969 C 12.894531 51.230469 11.351562 52.84375 11.417969 52.984375 L 13.066406 52.289062 C 13.246094 52.347656 13.199219 54.863281 13.101562 54.960938 C 13 55.066406 10.265625 55.515625 10.171875 55.402344 L 13.027344 42.4375 L 11.199219 14.238281 L 49.101562 9.003906 C 48.988281 9.695312 47.476562 12.589844 47.011719 12.738281 Z M 47.015625 12.738281 "/>
<path style=" stroke:none;fill-rule:nonzero;fill:rgb(97.647059%,83.921569%,37.254902%);fill-opacity:1;" d="M 19.328125 47.382812 C 18.328125 48.523438 17.355469 49.832031 16.546875 51.117188 C 15.242188 53.183594 14.3125 55.523438 13.503906 57.855469 L 13.324219 57.820312 L 13.25 52.179688 C 13.136719 51.984375 11.816406 52.828125 12.003906 52.398438 C 14.097656 50.027344 16.988281 48.695312 19.511719 46.867188 C 19.859375 46.839844 19.570312 46.953125 19.328125 47.382812 Z M 50.53125 12.589844 C 50.179688 12.71875 45.589844 15.9375 44.378906 16.472656 C 47.277344 13.050781 48.941406 10.753906 50.421875 6.4375 C 50.675781 6.488281 50.394531 11.320312 50.382812 11.675781 L 51.921875 11.015625 Z M 50.53125 12.589844 "/>
<path style=" stroke:none;fill-rule:nonzero;fill:rgb(97.254902%,97.647059%,98.039216%);fill-opacity:1;" d="M 50.824219 13.617188 C 50.636719 14.339844 49.46875 20.347656 49.433594 20.757812 C 49.15625 23.871094 51.007812 41.621094 51.042969 46.539062 C 41.765625 47.816406 32.449219 48.859375 23.175781 50.164062 C 22.265625 50.292969 17.042969 50.992188 16.691406 51.1875 L 16.546875 51.113281 C 17.355469 49.828125 18.328125 48.523438 19.328125 47.378906 C 19.359375 47.347656 19.550781 47.609375 19.769531 46.757812 L 19.585938 46.648438 C 17.605469 48.125 14.914062 49.402344 13.105469 51.042969 C 13.179688 48.871094 14.589844 43.792969 14.714844 42.4375 C 14.933594 40.109375 13.089844 21.628906 13.105469 17.242188 C 23.109375 15.910156 33.097656 14.453125 43.097656 13.101562 C 43.84375 13 46.796875 12.804688 47.015625 12.734375 C 46.917969 13.378906 44.03125 16.378906 44.160156 16.582031 C 44.296875 16.707031 44.367188 16.476562 44.378906 16.472656 C 45.59375 15.9375 50.183594 12.71875 50.53125 12.589844 C 51.320312 12.296875 50.640625 12.789062 50.824219 13.613281 Z M 50.824219 13.617188 "/>
<path style=" stroke:none;fill-rule:nonzero;fill:rgb(97.647059%,83.921569%,37.254902%);fill-opacity:1;" d="M 50.492188 40.496094 C 50.816406 40.976562 49.257812 43.898438 49.46875 44.011719 C 52.207031 43.367188 47.519531 45.667969 46.246094 46.722656 C 47.824219 44.753906 49.148438 42.625 50.492188 40.496094 Z M 17.828125 17.203125 L 18.011719 17.242188 C 16.085938 18.984375 14.96875 21.355469 13.578125 23.503906 C 13.3125 23.339844 14.59375 20.34375 14.789062 19.953125 C 12.1875 20.320312 16.546875 18.214844 17.828125 17.203125 Z M 17.828125 17.203125 "/>
<path style=" stroke:none;fill-rule:nonzero;fill:url(#linear0);" d="M 42.746094 16.851562 C 42.265625 17.316406 41.757812 17.75 41.277344 18.21875 C 40.648438 18.832031 39.96875 19.453125 39.414062 20.132812 C 36.886719 22.628906 34.457031 25.226562 31.894531 27.683594 C 31.035156 28.507812 30.132812 29.289062 29.261719 30.101562 C 29.863281 30.128906 30.464844 30.113281 31.0625 30.117188 C 31.320312 30.117188 31.578125 30.113281 31.835938 30.113281 C 32.707031 30.121094 33.578125 30.160156 34.449219 30.15625 C 32.898438 31.257812 31.449219 32.496094 29.960938 33.679688 C 30.050781 33.480469 29.804688 33.414062 29.703125 33.289062 C 28.464844 31.773438 27.867188 30.058594 26.90625 28.382812 L 26.753906 28.402344 C 29.792969 25.628906 33.121094 23.242188 36.425781 20.8125 C 36.988281 20.503906 37.488281 20.105469 38.015625 19.75 C 38.042969 19.734375 37.804688 19.78125 38.375 19.394531 C 39.273438 18.789062 40.429688 18.261719 42.15625 17.058594 C 42.625 16.734375 43.777344 15.859375 42.746094 16.851562 Z M 42.746094 16.851562 "/>
<path style=" stroke:none;fill-rule:nonzero;fill:rgb(31.372549%,51.372549%,61.960784%);fill-opacity:1;" d="M 38.242188 16.582031 L 38.28125 16.589844 C 38.210938 16.753906 38.167969 17.15625 38.0625 17.402344 C 36.898438 19.230469 38.050781 17.261719 38.242188 16.582031 Z M 38.242188 16.582031 "/>
<path style=" stroke:none;fill-rule:nonzero;fill:rgb(9.411765%,22.352941%,39.607843%);fill-opacity:1;" d="M 42.097656 23.886719 L 42.105469 23.84375 C 42.316406 23.515625 42.257812 23.0625 42.402344 22.828125 C 42.453125 22.75 43.609375 21.921875 43.757812 21.65625 L 43.832031 21.710938 C 42.816406 22.945312 43.304688 22.945312 43.273438 23.015625 C 43.21875 23.140625 43.007812 22.679688 42.097656 23.886719 Z M 28.292969 47.386719 C 27.921875 47.609375 27.75 47.8125 27.453125 48.03125 C 27.804688 47.09375 28.644531 46.511719 29.304688 45.808594 L 29.3125 45.878906 C 28.25 47.09375 28.621094 47.261719 28.558594 47.320312 C 28.519531 47.359375 28.480469 47.269531 28.292969 47.386719 Z M 25.972656 47.390625 C 25.9375 47.542969 26.019531 47.628906 26.015625 47.640625 C 25.996094 47.699219 25.625 47.648438 25.058594 48.375 L 25.050781 48.285156 C 25.375 47.476562 25.921875 46.894531 26.464844 46.234375 L 26.546875 46.246094 C 26.339844 46.601562 26.070312 46.980469 25.972656 47.390625 Z M 25.972656 47.390625 "/>
<path style=" stroke:none;fill-rule:nonzero;fill:rgb(4.705882%,31.764706%,52.54902%);fill-opacity:1;" d="M 40.855469 21.546875 C 40.628906 22.21875 40.734375 22.828125 40.714844 22.894531 C 40.695312 22.964844 40.222656 23.058594 39.796875 24.027344 C 39.964844 23.144531 40.714844 21.890625 40.832031 21.410156 C 40.902344 21.421875 40.851562 21.488281 40.855469 21.546875 Z M 40.855469 21.546875 "/>
<path style=" stroke:none;fill-rule:nonzero;fill:rgb(10.588235%,43.921569%,67.843137%);fill-opacity:1;" d="M 43.496094 24.378906 L 43.589844 24.984375 C 42.074219 25.335938 42.296875 25.464844 43.496094 24.378906 Z M 43.496094 24.378906 "/>
<path style=" stroke:none;fill-rule:nonzero;fill:rgb(30.588235%,55.294118%,76.862745%);fill-opacity:1;" d="M 44.953125 23.097656 L 45.007812 23.691406 C 43.683594 24.046875 43.882812 24.078125 44.953125 23.097656 Z M 44.953125 23.097656 "/>
<path style=" stroke:none;fill-rule:nonzero;fill:rgb(93.333333%,85.882353%,61.568627%);fill-opacity:1;" d="M 37.050781 15.996094 C 36.71875 16.882812 36.121094 18.15625 35.652344 18.984375 C 35.480469 19.144531 34.746094 20.265625 35.027344 19.40625 C 35.066406 19.28125 35.109375 19.230469 35.160156 19.121094 C 35.441406 18.519531 35.660156 18.484375 35.898438 17.765625 C 36.183594 17.195312 36.421875 16.578125 36.742188 16.03125 C 37.203125 15.25 37.414062 15.027344 37.050781 15.996094 Z M 37.050781 15.996094 "/>
<path style=" stroke:none;fill-rule:nonzero;fill:rgb(18.039216%,55.686275%,70.588235%);fill-opacity:1;" d="M 35.898438 17.765625 C 35.660156 18.484375 35.441406 18.515625 35.160156 19.121094 C 35.164062 18.839844 35.660156 17.792969 35.804688 17.550781 C 36.207031 16.894531 36.015625 17.410156 35.898438 17.765625 Z M 35.898438 17.765625 "/>
<path style=" stroke:none;fill-rule:nonzero;fill:rgb(10.588235%,43.921569%,67.843137%);fill-opacity:1;" d="M 42.625 25.890625 C 42.46875 25.945312 42.339844 26.046875 42.199219 26.125 C 41.265625 26.625 41.203125 26.597656 42.003906 25.875 Z M 42.625 25.890625 "/>
<path style=" stroke:none;fill-rule:nonzero;fill:rgb(95.686275%,74.901961%,6.666667%);fill-opacity:1;" d="M 29.957031 33.679688 C 29.507812 34.039062 28.964844 34.40625 28.609375 34.808594 C 28.027344 34.785156 27.441406 34.765625 26.855469 34.777344 C 26.386719 34.652344 25.507812 33.863281 25.15625 33.496094 C 24.28125 32.570312 23.851562 31.496094 23.730469 31.476562 L 23.367188 31.71875 C 24.527344 30.535156 25.519531 29.527344 26.75 28.402344 L 26.90625 28.386719 C 27.863281 30.058594 28.460938 31.773438 29.699219 33.289062 C 29.800781 33.414062 30.050781 33.484375 29.957031 33.679688 Z M 29.957031 33.679688 "/>
<path style=" stroke:none;fill-rule:nonzero;fill:rgb(93.333333%,85.882353%,61.568627%);fill-opacity:1;" d="M 38.40625 19.226562 C 38.253906 19.390625 37.898438 19.769531 38.050781 19.296875 C 38.121094 19.070312 39.304688 17.21875 39.4375 17.261719 C 39.5625 17.277344 39.351562 17.792969 39.316406 17.871094 C 39.273438 17.96875 38.492188 19.128906 38.40625 19.222656 Z M 38.40625 19.226562 "/>
<path style=" stroke:none;fill-rule:nonzero;fill:rgb(95.686275%,74.901961%,6.666667%);fill-opacity:1;" d="M 26.855469 34.777344 C 25.332031 34.8125 21.628906 35.328125 20 35.601562 C 19.957031 35.609375 19.863281 35.644531 19.875 35.710938 C 19.757812 35.707031 19.789062 35.742188 19.785156 35.742188 C 19.707031 35.703125 19.582031 35.769531 19.636719 35.609375 C 20.917969 34.351562 22.113281 33.003906 23.371094 31.71875 L 23.734375 31.472656 C 23.855469 31.492188 24.28125 32.566406 25.160156 33.492188 C 25.507812 33.863281 26.386719 34.648438 26.859375 34.777344 Z M 26.855469 34.777344 "/>
<path style=" stroke:none;fill-rule:nonzero;fill:rgb(70.196078%,38.039216%,5.882353%);fill-opacity:1;" d="M 30.777344 34.949219 C 30.53125 35.210938 30.171875 35.363281 29.898438 35.585938 C 28.109375 36.054688 26.253906 36.246094 24.410156 36.203125 L 24.578125 36.359375 C 23.15625 36.144531 21.234375 35.777344 19.875 35.710938 C 19.863281 35.644531 19.960938 35.609375 20 35.601562 C 21.628906 35.328125 25.332031 34.8125 26.859375 34.777344 C 27.445312 34.765625 28.027344 34.785156 28.613281 34.804688 C 29.335938 34.832031 30.054688 34.910156 30.777344 34.949219 Z M 30.777344 34.949219 "/>
<path style=" stroke:none;fill-rule:nonzero;fill:rgb(54.117647%,24.313725%,4.313725%);fill-opacity:1;" d="M 29.898438 35.585938 C 29.558594 35.867188 28.777344 36.613281 28.554688 36.976562 C 27.570312 36.777344 26.570312 36.675781 25.578125 36.527344 C 25.246094 36.476562 24.914062 36.410156 24.578125 36.359375 L 24.410156 36.203125 C 26.253906 36.246094 28.109375 36.054688 29.898438 35.585938 Z M 29.898438 35.585938 "/>
<path style=" stroke:none;fill-rule:nonzero;fill:rgb(9.411765%,22.352941%,39.607843%);fill-opacity:1;" d="M 24.464844 42.613281 C 24.335938 42.875 24.171875 43.640625 24.132812 43.710938 C 24.109375 43.757812 23.621094 44.070312 23.394531 44.394531 C 23.277344 44.328125 24.300781 42.710938 24.464844 42.613281 Z M 24.464844 42.613281 "/>
<path style=" stroke:none;fill-rule:nonzero;fill:rgb(10.588235%,43.921569%,67.843137%);fill-opacity:1;" d="M 22.800781 42.035156 C 23.617188 42.199219 22.472656 43.058594 22.578125 42.195312 Z M 22.800781 42.035156 "/>
<path style=" stroke:none;fill-rule:nonzero;fill:rgb(30.588235%,55.294118%,76.862745%);fill-opacity:1;" d="M 24.292969 41.0625 C 24.523438 41.078125 24.484375 41.105469 24.441406 41.324219 C 23.515625 41.726562 23.550781 41.644531 24.292969 41.0625 Z M 24.292969 41.0625 "/>
<path style=" stroke:none;fill-rule:nonzero;fill:rgb(31.372549%,51.372549%,61.960784%);fill-opacity:1;" d="M 25.148438 40.417969 C 23.960938 41.511719 24.632812 40.59375 25.367188 40.148438 C 25.339844 40.203125 25.175781 40.394531 25.148438 40.417969 Z M 25.148438 40.417969 "/>
<path style=" stroke:none;fill-rule:nonzero;fill:rgb(50.980392%,57.647059%,62.352941%);fill-opacity:1;" d="M 21.65625 43.109375 C 21.8125 42.914062 22.203125 42.5625 22.429688 42.453125 C 22.316406 42.644531 21.851562 43.003906 21.65625 43.109375 Z M 40.269531 27.675781 C 40.21875 27.714844 40.136719 27.742188 40.078125 27.777344 C 40.089844 27.769531 40.066406 27.730469 40.238281 27.585938 C 40.8125 27.113281 40.738281 27.332031 40.265625 27.675781 Z M 40.269531 27.675781 "/>
<path style=" stroke:none;fill-rule:nonzero;fill:rgb(4.705882%,31.764706%,52.54902%);fill-opacity:1;" d="M 41.054688 26.9375 L 41.058594 27.046875 C 40.652344 27.402344 40.6875 27.125 41.054688 26.9375 Z M 41.054688 26.9375 "/>
<path style=" stroke:none;fill-rule:nonzero;fill:rgb(50.980392%,57.647059%,62.352941%);fill-opacity:1;" d="M 40.078125 27.777344 C 40.007812 27.839844 39.949219 27.914062 39.855469 27.957031 C 39.8125 27.820312 40.023438 27.8125 40.078125 27.777344 Z M 40.078125 27.777344 "/>
<path style=" stroke:none;fill-rule:nonzero;fill:rgb(23.137255%,65.098039%,78.823529%);fill-opacity:1;" d="M 34.617188 30.183594 C 34.507812 30.300781 34.371094 30.453125 34.253906 30.558594 C 34.078125 30.71875 33.769531 30.878906 33.648438 31.109375 C 33.390625 31.199219 31.453125 33.238281 30.964844 33.5625 C 30.953125 33.640625 32.265625 33.683594 32.445312 33.699219 C 33.503906 33.785156 34.5625 33.871094 35.613281 34.003906 C 34.953125 34.722656 34.128906 35.308594 33.402344 35.96875 C 32.722656 36.582031 27.820312 41.417969 27.589844 41.757812 C 27.371094 42.085938 27.632812 41.917969 27.578125 42.105469 C 27.554688 42.175781 26.605469 42.988281 26.460938 43.140625 C 26.230469 43.375 25.839844 43.792969 26.011719 43.78125 C 25.515625 44.261719 25.011719 44.714844 24.496094 45.164062 C 24.476562 45.179688 24.484375 45.300781 24.46875 45.3125 C 24.449219 45.328125 24.417969 45.257812 24.414062 45.261719 C 24.28125 45.363281 24.195312 45.566406 24.121094 45.34375 C 25.371094 43.933594 25.820312 43.613281 26.960938 41.9375 C 27.125 41.699219 27.265625 41.46875 27.421875 41.230469 C 27.890625 40.519531 31.070312 35.542969 31.207031 35.214844 C 31.417969 34.722656 30.996094 34.960938 30.78125 34.949219 C 30.058594 34.910156 29.335938 34.832031 28.613281 34.808594 C 28.96875 34.40625 29.511719 34.039062 29.960938 33.679688 C 31.453125 32.496094 32.898438 31.257812 34.453125 30.15625 C 34.496094 30.15625 34.605469 30.074219 34.617188 30.183594 Z M 34.617188 30.183594 "/>
<path style=" stroke:none;fill-rule:nonzero;fill:rgb(95.686275%,74.901961%,6.666667%);fill-opacity:1;" d="M 27.421875 41.230469 L 26.957031 41.9375 C 25.816406 43.613281 25.371094 43.933594 24.117188 45.34375 C 23.882812 45.609375 23.425781 45.988281 23.140625 46.316406 C 23.113281 46.265625 23.21875 46.027344 23.238281 45.984375 C 23.789062 45.457031 24.222656 44.8125 24.730469 44.246094 C 24.984375 43.964844 25.546875 43.578125 25.636719 43.441406 C 25.925781 42.988281 28.113281 37.683594 28.550781 36.976562 C 28.777344 36.617188 29.554688 35.867188 29.898438 35.585938 C 30.171875 35.363281 30.53125 35.210938 30.777344 34.949219 C 30.992188 34.960938 31.414062 34.722656 31.203125 35.214844 C 31.066406 35.542969 27.886719 40.519531 27.417969 41.230469 Z M 27.421875 41.230469 "/>
<path style=" stroke:none;fill-rule:nonzero;fill:rgb(33.333333%,60%,50.196078%);fill-opacity:1;" d="M 26.960938 41.9375 L 27.421875 41.230469 C 27.265625 41.46875 27.125 41.699219 26.960938 41.9375 Z M 26.960938 41.9375 "/>
<path style=" stroke:none;fill-rule:nonzero;fill:rgb(23.137255%,65.098039%,78.823529%);fill-opacity:1;" d="M 36.207031 34.0625 C 36.238281 34.113281 36.449219 34.003906 36.261719 34.246094 C 36.183594 34.347656 36.109375 34.351562 36.003906 34.507812 C 32.785156 37.246094 29.730469 40.179688 26.679688 43.113281 C 26.449219 43.332031 26.238281 43.566406 26.011719 43.785156 C 25.839844 43.796875 26.230469 43.378906 26.460938 43.140625 C 26.605469 42.992188 27.554688 42.179688 27.578125 42.109375 C 27.632812 41.921875 27.367188 42.089844 27.589844 41.761719 C 27.820312 41.421875 32.722656 36.585938 33.398438 35.972656 C 34.128906 35.3125 34.953125 34.726562 35.613281 34.007812 C 35.8125 34.035156 36.003906 34.074219 36.207031 34.0625 Z M 36.207031 34.0625 "/>
<path style=" stroke:none;fill-rule:nonzero;fill:rgb(9.411765%,22.352941%,39.607843%);fill-opacity:1;" d="M 42.175781 17.714844 C 42.03125 17.9375 41.683594 18.441406 41.664062 18.480469 C 41.660156 18.484375 41.714844 18.527344 41.691406 18.570312 C 41.433594 19.015625 41.195312 19.457031 40.953125 19.910156 C 40.730469 19.964844 40.613281 20.414062 40.503906 20.550781 C 40.480469 20.582031 40.167969 20.777344 39.945312 21.070312 C 39.476562 21.691406 38.414062 23.46875 38.167969 23.78125 C 38.121094 23.835938 38.019531 23.941406 37.933594 23.894531 C 38.046875 23.640625 38.203125 23.398438 38.3125 23.152344 C 38.355469 23.054688 38.152344 23.011719 38.480469 22.65625 C 38.53125 22.078125 39.140625 21.695312 39.109375 21.191406 C 39.324219 21.03125 39.539062 20.503906 39.902344 20.015625 C 40.226562 19.585938 41.433594 18.445312 41.273438 18.21875 C 41.753906 17.75 42.265625 17.316406 42.746094 16.851562 C 42.605469 17.167969 42.359375 17.425781 42.171875 17.714844 Z M 42.175781 17.714844 "/>
<path style=" stroke:none;fill-rule:nonzero;fill:rgb(9.411765%,22.352941%,39.607843%);fill-opacity:1;" d="M 37.933594 23.894531 C 37.183594 25.539062 35.710938 28.964844 34.617188 30.183594 C 34.601562 30.074219 34.492188 30.15625 34.449219 30.15625 C 33.578125 30.160156 32.707031 30.121094 31.835938 30.113281 C 31.664062 30.003906 32.570312 29.167969 32.921875 28.75 C 35.1875 26.0625 37.132812 23.140625 39.328125 20.402344 C 39.335938 20.390625 39.289062 20.289062 39.414062 20.132812 C 39.96875 19.453125 40.648438 18.832031 41.277344 18.21875 C 41.4375 18.449219 40.230469 19.585938 39.90625 20.019531 C 39.539062 20.503906 39.328125 21.03125 39.109375 21.195312 C 39.140625 21.695312 38.53125 22.078125 38.480469 22.65625 C 38.152344 23.015625 38.359375 23.054688 38.3125 23.152344 C 38.203125 23.402344 38.046875 23.644531 37.933594 23.894531 Z M 37.933594 23.894531 "/>
<path style=" stroke:none;fill-rule:nonzero;fill:rgb(4.313725%,14.117647%,27.843137%);fill-opacity:1;" d="M 31.835938 30.113281 C 31.578125 30.113281 31.320312 30.117188 31.0625 30.117188 C 31.042969 30.015625 30.929688 30.117188 30.914062 29.984375 C 30.898438 29.871094 31.902344 28.085938 31.933594 27.976562 C 31.9375 27.960938 31.878906 27.742188 31.894531 27.683594 C 34.457031 25.226562 36.886719 22.628906 39.414062 20.132812 C 39.289062 20.289062 39.335938 20.390625 39.328125 20.398438 C 37.132812 23.136719 35.1875 26.0625 32.921875 28.746094 C 32.570312 29.164062 31.664062 30.003906 31.835938 30.113281 Z M 31.835938 30.113281 "/>
<path style=" stroke:none;fill-rule:nonzero;fill:rgb(5.882353%,6.27451%,7.843137%);fill-opacity:1;" d="M 31.0625 30.117188 C 30.460938 30.113281 29.859375 30.128906 29.261719 30.101562 C 30.128906 29.289062 31.035156 28.511719 31.894531 27.683594 C 31.875 27.742188 31.933594 27.960938 31.929688 27.976562 C 31.902344 28.085938 30.898438 29.871094 30.910156 29.984375 C 30.925781 30.117188 31.039062 30.015625 31.0625 30.117188 Z M 31.0625 30.117188 "/>
<path style=" stroke:none;fill-rule:nonzero;fill:rgb(9.411765%,22.352941%,39.607843%);fill-opacity:1;" d="M 36.207031 34.0625 C 36.003906 34.070312 35.8125 34.03125 35.613281 34.007812 C 34.558594 33.871094 33.503906 33.789062 32.445312 33.699219 C 32.46875 33.59375 32.648438 33.496094 32.746094 33.445312 C 33.3125 33.128906 33.910156 32.816406 34.488281 32.515625 C 34.746094 32.378906 35.742188 31.804688 35.894531 31.789062 C 36.285156 31.75 37.410156 31.964844 37.917969 32.015625 C 37.742188 32.335938 36.207031 33.742188 36.152344 33.859375 C 36.097656 33.984375 36.167969 33.996094 36.207031 34.0625 Z M 36.207031 34.0625 "/>
<path style=" stroke:none;fill-rule:nonzero;fill:rgb(4.313725%,14.117647%,27.843137%);fill-opacity:1;" d="M 40.953125 19.90625 C 40.839844 20.121094 40.703125 20.328125 40.589844 20.542969 C 39.808594 22.058594 39.140625 23.617188 38.449219 25.175781 C 38.382812 25.332031 38.300781 25.316406 38.296875 25.324219 C 38.292969 25.332031 38.363281 25.382812 38.308594 25.5 C 37.957031 26.308594 36.84375 28.683594 36.699219 29.265625 C 36.699219 29.273438 36.605469 29.265625 36.644531 29.472656 C 36.726562 29.554688 38.644531 29.761719 38.929688 29.808594 L 35.894531 31.789062 C 35.742188 31.800781 34.746094 32.378906 34.488281 32.511719 C 34.484375 31.851562 34.488281 31.183594 34.253906 30.558594 C 34.371094 30.449219 34.507812 30.300781 34.617188 30.183594 C 35.710938 28.964844 37.1875 25.539062 37.933594 23.894531 C 38.019531 23.941406 38.121094 23.835938 38.167969 23.78125 C 38.414062 23.46875 39.476562 21.691406 39.945312 21.070312 C 40.167969 20.777344 40.480469 20.582031 40.503906 20.550781 C 40.613281 20.414062 40.730469 19.964844 40.953125 19.910156 Z M 40.953125 19.90625 "/>
<path style=" stroke:none;fill-rule:nonzero;fill:rgb(3.529412%,7.45098%,16.470588%);fill-opacity:1;" d="M 34.488281 32.515625 C 33.910156 32.816406 33.3125 33.128906 32.746094 33.445312 C 32.8125 32.433594 34.316406 30.882812 33.644531 31.109375 C 33.769531 30.878906 34.078125 30.71875 34.253906 30.558594 C 34.484375 31.183594 34.480469 31.851562 34.488281 32.515625 Z M 34.488281 32.515625 "/>
<path style=" stroke:none;fill-rule:nonzero;fill:rgb(5.882353%,6.27451%,7.843137%);fill-opacity:1;" d="M 32.746094 33.445312 C 32.648438 33.496094 32.46875 33.589844 32.445312 33.699219 C 32.265625 33.683594 30.953125 33.640625 30.964844 33.5625 C 31.449219 33.238281 33.386719 31.199219 33.644531 31.109375 C 34.316406 30.882812 32.8125 32.433594 32.746094 33.445312 Z M 32.746094 33.445312 "/>
<path style=" stroke:none;fill-rule:nonzero;fill:rgb(87.45098%,49.411765%,7.45098%);fill-opacity:1;" d="M 45.113281 30.832031 C 45.214844 30.871094 45.316406 30.796875 45.261719 30.984375 C 45.144531 31.148438 43.902344 32.425781 43.59375 32.757812 C 42.949219 33.441406 40.492188 36.03125 39.945312 36.378906 C 39.023438 36.964844 40.035156 36.191406 39.980469 35.90625 C 40.726562 35.195312 41.492188 34.5 42.222656 33.769531 C 43.1875 32.804688 44.035156 31.648438 45.113281 30.832031 Z M 45.113281 30.832031 "/>
<path style=" stroke:none;fill-rule:nonzero;fill:rgb(87.45098%,49.411765%,7.45098%);fill-opacity:1;" d="M 39.945312 36.378906 C 39.933594 36.464844 39.824219 36.519531 39.734375 36.605469 C 38.699219 37.582031 37.617188 38.507812 36.484375 39.375 C 36.699219 39.148438 37.089844 38.554688 37.511719 38.109375 C 38.269531 37.308594 39.183594 36.660156 39.980469 35.902344 C 40.035156 36.191406 39.023438 36.960938 39.945312 36.378906 Z M 39.945312 36.378906 "/>
<path style=" stroke:none;fill-rule:nonzero;fill:rgb(95.686275%,74.901961%,6.666667%);fill-opacity:1;" d="M 45.113281 30.832031 C 44.035156 31.648438 43.1875 32.804688 42.222656 33.769531 C 41.492188 34.5 40.726562 35.195312 39.980469 35.90625 C 39.183594 36.660156 38.269531 37.308594 37.511719 38.109375 L 37.441406 38.011719 C 38.917969 36.308594 40.667969 32.453125 41.429688 30.265625 C 41.46875 30.269531 41.578125 30.203125 41.589844 30.203125 C 42.324219 30.320312 44.578125 30.609375 45.113281 30.832031 Z M 45.113281 30.832031 "/>
<path style=" stroke:none;fill-rule:nonzero;fill:rgb(93.333333%,61.568627%,4.313725%);fill-opacity:1;" d="M 37.511719 38.109375 C 37.089844 38.554688 36.699219 39.152344 36.484375 39.378906 C 36.324219 39.546875 36.246094 39.574219 36.1875 39.632812 L 36.128906 39.578125 C 35.230469 40.253906 34.019531 41.242188 33.0625 41.773438 C 32.472656 42.101562 32.726562 41.886719 33.027344 41.59375 C 34 40.648438 36.46875 39.132812 37.441406 38.011719 Z M 37.511719 38.109375 "/>
<path style=" stroke:none;fill-rule:nonzero;fill:rgb(95.686275%,74.901961%,6.666667%);fill-opacity:1;" d="M 36.1875 39.632812 C 35.699219 40.085938 34.558594 40.882812 33.953125 41.308594 C 33.726562 41.472656 32.703125 42.019531 32.648438 42.074219 C 32.527344 42.183594 31.074219 44.335938 30.734375 44.695312 L 30.6875 44.578125 C 31.027344 43.917969 31.363281 43.253906 31.703125 42.59375 C 32.15625 42.277344 32.554688 41.882812 33.027344 41.59375 C 32.726562 41.886719 32.472656 42.101562 33.0625 41.773438 C 34.019531 41.242188 35.234375 40.253906 36.132812 39.578125 Z M 36.1875 39.632812 "/>
<path style=" stroke:none;fill-rule:nonzero;fill:rgb(67.058824%,11.372549%,27.45098%);fill-opacity:1;" d="M 28.28125 44.59375 C 28.085938 44.703125 27.898438 44.828125 27.707031 44.9375 C 26.753906 45.464844 25.746094 45.902344 24.828125 46.507812 C 24.359375 46.671875 21.921875 48.109375 21.414062 48.597656 C 21.117188 48.734375 21.839844 48.003906 22.105469 47.667969 L 22.792969 47.148438 C 23.152344 46.816406 23.636719 46.164062 24.023438 45.9375 C 24.375 45.730469 23.996094 46.019531 24.195312 46.054688 C 24.640625 45.910156 24.507812 45.78125 24.546875 45.761719 C 24.558594 45.753906 24.648438 45.859375 24.851562 45.726562 C 25.464844 45.320312 24.8125 45.253906 25.402344 44.988281 C 25.6875 44.964844 25.378906 45.484375 25.941406 44.96875 C 25.925781 44.871094 25.765625 45.121094 25.628906 44.789062 C 26.097656 44.640625 25.757812 44.734375 25.789062 44.597656 C 25.8125 44.484375 26.171875 44.5 26.222656 44.429688 C 26.273438 44.359375 26.109375 44.386719 26.128906 44.347656 C 26.21875 44.160156 26.417969 44.546875 26.351562 44.1875 C 26.523438 44.417969 26.441406 44.183594 26.53125 44.128906 C 26.628906 44.074219 26.65625 44.386719 26.6875 44.089844 C 27.054688 44.027344 26.710938 44.046875 26.339844 44.121094 C 26.71875 44.015625 26.699219 43.847656 26.753906 43.820312 C 26.796875 43.796875 26.847656 43.894531 26.960938 43.855469 C 27.015625 43.835938 27.019531 43.703125 27.09375 43.703125 C 27.246094 43.695312 27.527344 43.804688 27.660156 43.796875 C 27.863281 43.777344 30.167969 42.03125 30.507812 41.761719 C 31.445312 41.015625 34.941406 38 35.632812 37.253906 C 36.109375 36.742188 37.246094 35.652344 36.78125 34.984375 C 36.765625 34.957031 36.71875 34.992188 36.59375 34.820312 C 36.582031 34.804688 36.46875 34.597656 36.394531 34.484375 C 36.46875 34.488281 36.417969 34.457031 36.40625 34.398438 C 37.792969 35.253906 37.167969 36.058594 36.34375 37.109375 C 35.355469 38.375 31.824219 41.285156 30.417969 42.3125 C 29.871094 42.710938 27.0625 44.566406 26.691406 44.722656 C 26.578125 44.769531 26.449219 44.671875 26.441406 44.679688 C 26.386719 44.757812 26.472656 44.828125 26.429688 44.875 C 26.320312 44.992188 25.203125 45.578125 25.363281 45.722656 C 26.359375 45.390625 27.210938 44.640625 28.242188 44.414062 L 28.277344 44.59375 Z M 28.28125 44.59375 "/>
<path style=" stroke:none;fill-rule:nonzero;fill:rgb(13.72549%,14.117647%,25.882353%);fill-opacity:1;" d="M 24.46875 45.316406 C 24.421875 45.355469 23.863281 46.035156 24.023438 45.9375 C 23.636719 46.164062 23.152344 46.816406 22.792969 47.148438 L 22.105469 47.667969 C 22.457031 47.214844 22.765625 46.746094 23.144531 46.3125 C 23.429688 45.988281 23.886719 45.609375 24.121094 45.34375 C 24.195312 45.566406 24.28125 45.359375 24.414062 45.261719 C 24.417969 45.257812 24.449219 45.328125 24.46875 45.3125 Z M 24.46875 45.316406 "/>
<path style=" stroke:none;fill-rule:nonzero;fill:rgb(83.137255%,20.784314%,38.431373%);fill-opacity:1;" d="M 41.183594 30.179688 L 41.292969 30.308594 C 40.363281 32.9375 39.148438 35.53125 37.480469 37.777344 C 37.097656 37.695312 37.191406 38.046875 36.875 37.808594 C 36.945312 37.226562 37.980469 36.203125 37.914062 35.671875 C 37.90625 35.621094 37.457031 34.859375 37.394531 34.78125 C 37.261719 34.609375 36.292969 33.65625 36.40625 34.398438 C 36.417969 34.457031 36.46875 34.488281 36.394531 34.484375 C 36.304688 34.34375 36.339844 34.289062 36.261719 34.242188 C 36.449219 34 36.238281 34.113281 36.207031 34.058594 C 36.167969 33.996094 36.097656 33.980469 36.152344 33.855469 C 36.207031 33.738281 37.742188 32.335938 37.917969 32.011719 C 37.410156 31.960938 36.285156 31.746094 35.894531 31.785156 L 38.925781 29.804688 C 39.679688 29.925781 40.429688 30.0625 41.183594 30.179688 Z M 41.183594 30.179688 "/>
<path style=" stroke:none;fill-rule:nonzero;fill:rgb(67.058824%,11.372549%,27.45098%);fill-opacity:1;" d="M 41.429688 30.265625 C 40.667969 32.453125 38.917969 36.308594 37.441406 38.011719 C 36.46875 39.132812 34 40.648438 33.027344 41.59375 C 32.554688 41.882812 32.15625 42.277344 31.703125 42.59375 C 30.902344 43.144531 29.21875 44.070312 28.28125 44.59375 L 28.246094 44.414062 C 27.210938 44.640625 26.359375 45.394531 25.367188 45.722656 C 25.203125 45.578125 26.320312 44.996094 26.429688 44.875 C 26.472656 44.828125 26.386719 44.757812 26.441406 44.683594 C 26.449219 44.671875 26.578125 44.773438 26.691406 44.722656 C 27.066406 44.566406 29.875 42.710938 30.417969 42.3125 C 31.824219 41.285156 35.355469 38.375 36.347656 37.109375 C 37.167969 36.058594 37.792969 35.253906 36.410156 34.398438 C 36.292969 33.65625 37.261719 34.609375 37.398438 34.78125 C 37.457031 34.859375 37.910156 35.621094 37.914062 35.671875 C 37.980469 36.203125 36.945312 37.226562 36.875 37.808594 C 37.195312 38.046875 37.097656 37.695312 37.480469 37.777344 C 39.148438 35.53125 40.363281 32.9375 41.292969 30.308594 L 41.1875 30.179688 C 41.460938 30.222656 41.417969 30.265625 41.429688 30.265625 Z M 41.429688 30.265625 "/>
<path style=" stroke:none;fill-rule:nonzero;fill:rgb(49.803922%,5.098039%,19.607843%);fill-opacity:1;" d="M 36.785156 34.984375 C 36.734375 35.148438 36.828125 35.292969 36.800781 35.398438 C 36.453125 36.652344 29.472656 42.214844 28.089844 43.410156 C 27.597656 43.710938 27.136719 43.472656 27.097656 43.703125 C 27.023438 43.703125 27.019531 43.832031 26.964844 43.855469 C 26.851562 43.894531 26.796875 43.796875 26.757812 43.820312 C 26.703125 43.847656 26.722656 44.015625 26.34375 44.121094 C 26.714844 44.046875 27.054688 44.027344 26.691406 44.089844 C 26.660156 44.386719 26.632812 44.074219 26.535156 44.128906 C 26.445312 44.179688 26.53125 44.417969 26.355469 44.1875 C 26.421875 44.546875 26.222656 44.160156 26.132812 44.347656 C 26.113281 44.386719 26.277344 44.359375 26.226562 44.429688 C 26.175781 44.5 25.816406 44.484375 25.792969 44.597656 C 25.761719 44.734375 26.101562 44.640625 25.632812 44.789062 C 25.765625 45.121094 25.929688 44.871094 25.945312 44.96875 C 25.382812 45.484375 25.691406 44.964844 25.40625 44.988281 C 24.816406 45.253906 25.46875 45.320312 24.855469 45.726562 C 24.652344 45.859375 24.5625 45.753906 24.546875 45.761719 C 24.511719 45.78125 24.640625 45.910156 24.199219 46.054688 C 24 46.019531 24.378906 45.730469 24.027344 45.9375 C 23.867188 46.035156 24.425781 45.355469 24.472656 45.316406 C 24.808594 45.003906 24.808594 45.179688 25.042969 44.996094 C 25.460938 44.65625 25.851562 44.242188 26.273438 43.914062 C 26.289062 43.902344 26.484375 43.933594 26.660156 43.78125 C 26.734375 43.710938 26.820312 43.339844 26.925781 43.324219 C 27.089844 43.300781 26.9375 43.457031 27.039062 43.429688 C 27.402344 43.335938 27.476562 43.085938 27.578125 43.039062 C 27.621094 43.019531 27.617188 43.121094 27.722656 43.0625 C 27.816406 43.015625 27.695312 42.910156 28.011719 42.871094 C 28.011719 42.832031 27.601562 42.863281 28.074219 42.753906 C 27.851562 42.40625 28.835938 42.65625 29.300781 41.824219 C 29.636719 41.613281 30.125 41.300781 30.167969 41.007812 C 30.769531 40.828125 30.636719 40.589844 30.667969 40.570312 C 30.730469 40.527344 30.785156 40.636719 30.984375 40.488281 C 31.066406 40.425781 31.199219 40.148438 31.210938 40.136719 C 31.289062 40.070312 31.449219 40.0625 31.589844 39.9375 C 31.65625 39.875 31.699219 39.746094 31.707031 39.738281 C 31.804688 39.652344 32.183594 39.414062 32.292969 39.3125 C 32.492188 39.132812 32.515625 38.933594 32.53125 38.917969 C 33.742188 37.800781 35.113281 36.800781 36.066406 35.453125 C 36.097656 35.414062 36.175781 35.472656 36.199219 35.429688 C 36.367188 35.15625 36.246094 34.871094 36.601562 34.824219 C 36.722656 34.996094 36.769531 34.957031 36.789062 34.984375 Z M 36.785156 34.984375 "/>
<path style=" stroke:none;fill-rule:nonzero;fill:rgb(25.882353%,4.705882%,12.156863%);fill-opacity:1;" d="M 36.394531 34.484375 C 36.46875 34.597656 36.582031 34.804688 36.59375 34.824219 C 36.238281 34.871094 36.359375 35.15625 36.195312 35.429688 C 36.167969 35.472656 36.089844 35.414062 36.0625 35.453125 C 35.109375 36.800781 33.738281 37.800781 32.523438 38.917969 C 32.507812 38.933594 32.484375 39.132812 32.289062 39.3125 C 32.179688 39.414062 31.796875 39.652344 31.703125 39.738281 C 31.691406 39.746094 31.648438 39.878906 31.582031 39.9375 C 31.441406 40.0625 31.28125 40.070312 31.207031 40.136719 C 31.191406 40.148438 31.058594 40.425781 30.976562 40.488281 C 30.78125 40.636719 30.722656 40.527344 30.664062 40.570312 C 30.632812 40.589844 30.765625 40.828125 30.160156 41.007812 C 30.121094 41.300781 29.628906 41.613281 29.296875 41.824219 C 28.832031 42.65625 27.847656 42.40625 28.066406 42.753906 C 27.597656 42.863281 28.003906 42.832031 28.003906 42.871094 C 27.6875 42.910156 27.8125 43.015625 27.714844 43.0625 C 27.785156 42.761719 27.660156 42.675781 27.660156 42.617188 C 27.667969 42.507812 28.707031 41.578125 28.890625 41.40625 C 29.070312 41.242188 29.164062 41.367188 29.25 41.074219 C 30.359375 40.082031 31.464844 39.089844 32.574219 38.097656 C 33.71875 37.203125 34.644531 36.066406 35.734375 35.09375 C 35.773438 34.859375 35.882812 34.6875 36.003906 34.503906 C 36.105469 34.347656 36.179688 34.34375 36.261719 34.242188 C 36.339844 34.285156 36.300781 34.34375 36.390625 34.484375 Z M 36.394531 34.484375 "/>
<path style=" stroke:none;fill-rule:nonzero;fill:rgb(67.058824%,11.372549%,27.45098%);fill-opacity:1;" d="M 27.097656 43.703125 C 27.136719 43.472656 27.59375 43.710938 28.089844 43.410156 C 29.472656 42.214844 36.453125 36.652344 36.796875 35.402344 C 36.828125 35.296875 36.730469 35.152344 36.78125 34.984375 C 37.246094 35.65625 36.105469 36.742188 35.632812 37.257812 C 34.941406 38.003906 31.445312 41.019531 30.507812 41.765625 C 30.167969 42.035156 27.863281 43.78125 27.65625 43.796875 C 27.527344 43.808594 27.242188 43.699219 27.09375 43.703125 Z M 27.097656 43.703125 "/>
<path style=" stroke:none;fill-rule:nonzero;fill:rgb(16.862745%,5.882353%,9.803922%);fill-opacity:1;" d="M 27.71875 43.066406 C 27.609375 43.121094 27.613281 43.019531 27.570312 43.042969 C 27.472656 43.089844 27.398438 43.335938 27.035156 43.429688 C 26.929688 43.457031 27.085938 43.300781 26.921875 43.328125 C 26.8125 43.34375 26.730469 43.714844 26.652344 43.78125 C 26.480469 43.9375 26.28125 43.902344 26.265625 43.914062 C 25.847656 44.246094 25.457031 44.65625 25.035156 44.996094 C 24.804688 45.179688 24.804688 45.003906 24.46875 45.316406 C 24.484375 45.300781 24.476562 45.183594 24.492188 45.167969 C 25.007812 44.714844 25.515625 44.261719 26.007812 43.785156 C 26.234375 43.566406 26.449219 43.332031 26.679688 43.109375 C 27.296875 43.117188 27.261719 42.648438 27.660156 42.621094 C 27.660156 42.679688 27.785156 42.761719 27.714844 43.066406 Z M 27.71875 43.066406 "/>
<path style=" stroke:none;fill-rule:nonzero;fill:rgb(5.882353%,6.27451%,7.843137%);fill-opacity:1;" d="M 27.664062 42.621094 C 27.261719 42.648438 27.296875 43.117188 26.679688 43.109375 C 29.730469 40.179688 32.785156 37.246094 36.003906 34.503906 C 35.882812 34.6875 35.773438 34.859375 35.734375 35.09375 C 34.644531 36.066406 33.71875 37.203125 32.578125 38.097656 C 31.46875 39.089844 30.359375 40.082031 29.25 41.074219 C 29.164062 41.367188 29.074219 41.242188 28.894531 41.40625 C 28.707031 41.578125 27.667969 42.507812 27.664062 42.617188 Z M 27.664062 42.621094 "/>
</g>
</svg>
