<svg xmlns="http://www.w3.org/2000/svg" width="64" height="64"><defs><linearGradient id="a" x1="312.53" x2="213.51" y1="177.96" y2="231.86" gradientTransform="rotate(9.399 31.685 32.87) scale(.125)" gradientUnits="userSpaceOnUse"><stop offset=".28" style="stop-color:#f9eca8;stop-opacity:1"/><stop offset="1" style="stop-color:#f9d55d;stop-opacity:1"/></linearGradient></defs><path d="m50.785 4.754.11 3.773c.41.07 3-.543 3.078-.293-.383 2.512-2.582 11.141-2.711 12.598-.215 2.492 1.765 24.313 1.976 29.004l-.328.18L14.97 55.07c-.364.164-1.578 4.293-1.828 4.25-.336-.543.007-4.023-.223-4.101l-2.965.402 2.93-13.332-1.903-28.2c12.672-1.882 25.41-3.523 38.122-5.234.328-.144 1.234-3.566 1.683-4.101Zm0 0" style="stroke:none;fill-rule:nonzero;fill:#e4f3fa;fill-opacity:1"/><path d="M16.691 51.191c.352-.195 5.57-.898 6.485-1.027 9.273-1.305 18.59-2.348 27.867-3.625-.035-4.918-1.887-22.668-1.61-25.781.036-.406 1.204-6.418 1.391-7.14.137-.536.153-.93.442-1.5.761-1.516 2.66-2.462-.625-.696-.293-3.25-.196-2.59 3.039-2.969l-2.633 12.453c.46 9.582 1.176 19.149 1.976 28.711l-1.941.403-36.11 4.906-.109-.184c.422-.715 1.227-3.215 1.832-3.55Zm0 0" style="stroke:none;fill-rule:nonzero;fill:#aadef1;fill-opacity:1"/><path d="M47.016 12.738c-.22.07-3.172.266-3.918.367-10.004 1.348-19.989 2.81-29.993 4.137-.015 4.39 1.825 22.867 1.61 25.195-.125 1.36-1.535 6.434-1.61 8.606-.21.187-1.753 1.8-1.687 1.941l1.648-.695c.18.059.133 2.574.036 2.672-.102.105-2.836.555-2.93.441l2.855-12.965L11.2 14.238l37.903-5.234c-.114.691-1.625 3.586-2.09 3.734Zm0 0" style="stroke:none;fill-rule:nonzero;fill:#aadef1;fill-opacity:1"/><path d="M19.328 47.383c-1 1.14-1.973 2.449-2.781 3.734-1.305 2.067-2.235 4.406-3.043 6.738l-.18-.035-.074-5.64c-.113-.196-1.434.648-1.246.218 2.094-2.37 4.984-3.703 7.508-5.53.347-.028.058.085-.184.515ZM50.531 12.59c-.351.129-4.941 3.348-6.152 3.883 2.898-3.422 4.562-5.72 6.043-10.035.254.05-.027 4.882-.04 5.238l1.54-.66Zm0 0" style="stroke:none;fill-rule:nonzero;fill:#f9d65f;fill-opacity:1"/><path d="M50.824 13.617c-.187.723-1.355 6.73-1.39 7.14-.278 3.114 1.574 20.864 1.609 25.782-9.277 1.277-18.594 2.32-27.867 3.625-.91.129-6.133.828-6.485 1.023l-.144-.074a30.473 30.473 0 0 1 2.781-3.734c.031-.031.223.23.442-.621l-.184-.11c-1.98 1.477-4.672 2.754-6.48 4.395.074-2.172 1.484-7.25 1.609-8.605.219-2.329-1.625-20.81-1.61-25.196 10.004-1.332 19.993-2.789 29.993-4.14.746-.102 3.699-.297 3.918-.368-.098.645-2.985 3.645-2.856 3.848.137.125.207-.105.219-.11 1.215-.535 5.805-3.753 6.152-3.882.79-.293.11.2.293 1.023Zm0 0" style="stroke:none;fill-rule:nonzero;fill:#f8f9fa;fill-opacity:1"/><path d="M50.492 40.496c.324.48-1.234 3.402-1.023 3.516 2.738-.645-1.95 1.656-3.223 2.71 1.578-1.968 2.902-4.097 4.246-6.226ZM17.828 17.203l.184.04c-1.926 1.741-3.043 4.112-4.434 6.26-.265-.163 1.016-3.16 1.211-3.55-2.601.367 1.758-1.738 3.04-2.75Zm0 0" style="stroke:none;fill-rule:nonzero;fill:#f9d65f;fill-opacity:1"/><path d="M42.746 16.852c-.48.464-.988.898-1.469 1.367-.629.613-1.308 1.234-1.863 1.914-2.527 2.496-4.957 5.094-7.52 7.55-.859.825-1.761 1.606-2.632 2.419.601.027 1.203.011 1.8.015.258 0 .516-.004.774-.004.871.008 1.742.047 2.613.043-1.55 1.102-3 2.34-4.488 3.524.09-.2-.156-.266-.258-.39-1.238-1.517-1.836-3.231-2.797-4.907l-.152.02c3.039-2.774 6.367-5.16 9.672-7.59.562-.31 1.062-.708 1.59-1.063.027-.016-.211.031.359-.355.898-.606 2.055-1.133 3.781-2.336.469-.325 1.621-1.2.59-.207Zm0 0" style="stroke:none;fill-rule:nonzero;fill:url(#a)"/><path d="m38.242 16.582.04.008c-.071.164-.114.566-.22.812-1.164 1.828-.011-.14.18-.82Zm0 0" style="stroke:none;fill-rule:nonzero;fill:#50839e;fill-opacity:1"/><path d="m42.098 23.887.007-.043c.211-.328.153-.782.297-1.016.051-.078 1.207-.906 1.356-1.172l.074.055c-1.016 1.234-.527 1.234-.559 1.305-.054.125-.265-.336-1.175.87Zm-13.805 23.5c-.371.222-.543.425-.84.644.352-.937 1.192-1.52 1.852-2.222l.008.07c-1.063 1.215-.692 1.383-.754 1.441-.04.04-.079-.05-.266.067Zm-2.32.004c-.035.152.047.238.043.25-.02.058-.391.007-.957.734l-.008-.09c.324-.808.87-1.39 1.414-2.05l.082.011c-.207.356-.477.734-.574 1.145Zm0 0" style="stroke:none;fill-rule:nonzero;fill:#183965;fill-opacity:1"/><path d="M40.855 21.547c-.226.672-.12 1.281-.14 1.348-.02.07-.492.164-.918 1.132.168-.882.918-2.136 1.035-2.617.07.012.02.078.023.137Zm0 0" style="stroke:none;fill-rule:nonzero;fill:#0c5186;fill-opacity:1"/><path d="m43.496 24.379.094.605c-1.516.352-1.293.48-.094-.605Zm0 0" style="stroke:none;fill-rule:nonzero;fill:#1b70ad;fill-opacity:1"/><path d="m44.953 23.098.055.593c-1.324.356-1.125.387-.055-.593Zm0 0" style="stroke:none;fill-rule:nonzero;fill:#4e8dc4;fill-opacity:1"/><path d="M37.05 15.996c-.331.887-.929 2.16-1.398 2.988-.172.16-.906 1.282-.625.422.04-.125.082-.176.133-.285.281-.601.5-.637.738-1.355.286-.57.524-1.188.844-1.735.461-.781.672-1.004.309-.035Zm0 0" style="stroke:none;fill-rule:nonzero;fill:#eedb9d;fill-opacity:1"/><path d="M35.898 17.766c-.238.718-.457.75-.738 1.355.004-.281.5-1.328.645-1.57.402-.656.21-.14.093.215Zm0 0" style="stroke:none;fill-rule:nonzero;fill:#2e8eb4;fill-opacity:1"/><path d="M42.625 25.89c-.156.055-.285.157-.426.235-.933.5-.996.473-.195-.25Zm0 0" style="stroke:none;fill-rule:nonzero;fill:#1b70ad;fill-opacity:1"/><path d="M29.957 33.68c-.45.36-.992.726-1.348 1.129a29.129 29.129 0 0 0-1.754-.032c-.468-.125-1.347-.914-1.699-1.28-.875-.927-1.304-2-1.426-2.02l-.363.242c1.16-1.184 2.153-2.192 3.383-3.317l.156-.015c.957 1.672 1.555 3.386 2.793 4.902.102.125.352.195.258.39Zm0 0" style="stroke:none;fill-rule:nonzero;fill:#f4bf11;fill-opacity:1"/><path d="M38.406 19.227c-.152.164-.508.543-.355.07.07-.227 1.254-2.078 1.386-2.035.126.015-.085.531-.12.61-.044.097-.825 1.257-.91 1.35Zm0 0" style="stroke:none;fill-rule:nonzero;fill:#eedb9d;fill-opacity:1"/><path d="M26.855 34.777c-1.523.035-5.226.551-6.855.825-.043.007-.137.043-.125.109-.117-.004-.086.031-.09.031-.078-.039-.203.028-.148-.133 1.281-1.257 2.476-2.605 3.734-3.89l.363-.246c.121.02.547 1.093 1.426 2.02.348.37 1.227 1.155 1.7 1.284Zm0 0" style="stroke:none;fill-rule:nonzero;fill:#f4bf11;fill-opacity:1"/><path d="M30.777 34.95c-.246.26-.605.413-.879.636-1.789.469-3.644.66-5.488.617l.168.156c-1.422-.214-3.344-.582-4.703-.648-.012-.066.086-.102.125-.11 1.629-.273 5.332-.788 6.86-.824.585-.011 1.167.008 1.753.028.723.027 1.442.105 2.164.144Zm0 0" style="stroke:none;fill-rule:nonzero;fill:#b3610f;fill-opacity:1"/><path d="M29.898 35.586c-.34.281-1.12 1.027-1.343 1.39-.985-.199-1.985-.3-2.977-.449-.332-.05-.664-.117-1-.168l-.168-.156c1.844.043 3.7-.148 5.488-.617Zm0 0" style="stroke:none;fill-rule:nonzero;fill:#8a3e0b;fill-opacity:1"/><path d="M24.465 42.613c-.13.262-.293 1.028-.332 1.098-.024.047-.512.36-.738.684-.118-.067.906-1.684 1.07-1.782Zm0 0" style="stroke:none;fill-rule:nonzero;fill:#183965;fill-opacity:1"/><path d="M22.8 42.035c.817.164-.327 1.024-.222.16Zm0 0" style="stroke:none;fill-rule:nonzero;fill:#1b70ad;fill-opacity:1"/><path d="M24.293 41.063c.23.015.191.042.148.261-.925.403-.89.32-.148-.261Zm0 0" style="stroke:none;fill-rule:nonzero;fill:#4e8dc4;fill-opacity:1"/><path d="M25.148 40.418c-1.187 1.094-.515.176.22-.27a2.038 2.038 0 0 1-.22.27Zm0 0" style="stroke:none;fill-rule:nonzero;fill:#50839e;fill-opacity:1"/><path d="M21.656 43.11c.157-.196.547-.547.774-.657-.114.192-.578.55-.774.656ZM40.27 27.675c-.051.039-.133.066-.192.101.012-.007-.012-.047.16-.191.575-.473.5-.254.028.09Zm0 0" style="stroke:none;fill-rule:nonzero;fill:#82939f;fill-opacity:1"/><path d="m41.055 26.938.004.109c-.407.355-.371.078-.004-.11Zm0 0" style="stroke:none;fill-rule:nonzero;fill:#0c5186;fill-opacity:1"/><path d="M40.078 27.777c-.07.063-.129.137-.223.18-.042-.137.168-.145.223-.18Zm0 0" style="stroke:none;fill-rule:nonzero;fill:#82939f;fill-opacity:1"/><path d="M34.617 30.184c-.11.117-.246.27-.363.375-.176.16-.484.32-.606.55-.257.09-2.195 2.13-2.683 2.453-.012.079 1.3.122 1.48.137 1.059.086 2.117.172 3.168.305-.66.719-1.484 1.305-2.21 1.965-.68.613-5.583 5.449-5.813 5.789-.219.328.043.16-.012.347-.023.07-.973.883-1.117 1.036-.23.234-.621.652-.45.64-.495.48-1 .934-1.515 1.383-.02.016-.012.137-.027.148-.02.016-.051-.054-.055-.05-.133.101-.219.304-.293.082 1.25-1.41 1.7-1.73 2.84-3.407.164-.238.305-.468.46-.707.47-.71 3.65-5.687 3.786-6.015.211-.492-.21-.254-.426-.266-.722-.039-1.445-.117-2.168-.14.356-.403.899-.77 1.348-1.13 1.492-1.183 2.937-2.421 4.492-3.523.043 0 .152-.082.164.028Zm0 0" style="stroke:none;fill-rule:nonzero;fill:#3ba6c9;fill-opacity:1"/><path d="m27.422 41.23-.465.708c-1.14 1.675-1.586 1.996-2.84 3.406-.234.265-.691.644-.976.972-.028-.05.078-.289.097-.332.551-.527.985-1.172 1.492-1.738.254-.281.817-.668.907-.805.289-.453 2.476-5.757 2.914-6.464.226-.36 1.004-1.11 1.347-1.391.274-.223.633-.375.88-.637.214.012.636-.226.425.266-.137.328-3.316 5.305-3.785 6.015Zm0 0" style="stroke:none;fill-rule:nonzero;fill:#f4bf11;fill-opacity:1"/><path d="m26.96 41.938.462-.708c-.156.239-.297.47-.461.708Zm0 0" style="stroke:none;fill-rule:nonzero;fill:#559980;fill-opacity:1"/><path d="M36.207 34.063c.031.05.242-.06.055.183-.078.102-.153.106-.258.262-3.219 2.738-6.274 5.672-9.324 8.605-.23.219-.442.453-.668.672-.172.012.218-.406.449-.644.144-.149 1.094-.961 1.117-1.032.055-.187-.21-.02.012-.347.23-.34 5.133-5.176 5.808-5.79.73-.66 1.555-1.245 2.215-1.964.2.027.39.066.594.054Zm0 0" style="stroke:none;fill-rule:nonzero;fill:#3ba6c9;fill-opacity:1"/><path d="M42.176 17.715c-.145.223-.492.726-.512.765-.004.004.05.047.027.09-.257.446-.496.887-.738 1.34-.223.055-.34.504-.45.64-.023.032-.335.227-.558.52-.468.621-1.53 2.399-1.777 2.711-.047.055-.148.16-.234.114.113-.254.27-.497.379-.743.042-.097-.16-.14.167-.496.051-.578.66-.96.63-1.465.214-.16.43-.687.792-1.175.325-.43 1.532-1.57 1.371-1.797.48-.469.993-.903 1.473-1.367-.14.316-.387.574-.574.863Zm0 0" style="stroke:none;fill-rule:nonzero;fill:#183965;fill-opacity:1"/><path d="M37.934 23.895c-.75 1.644-2.223 5.07-3.317 6.289-.015-.11-.125-.028-.168-.028-.87.004-1.742-.035-2.613-.043-.172-.11.734-.945 1.086-1.363 2.266-2.688 4.21-5.61 6.406-8.348.008-.011-.039-.113.086-.27.555-.679 1.234-1.3 1.863-1.913.16.23-1.047 1.367-1.37 1.8-.368.485-.579 1.012-.798 1.176.032.5-.578.883-.629 1.461-.328.36-.12.399-.167.496-.11.25-.266.493-.38.743Zm0 0" style="stroke:none;fill-rule:nonzero;fill:#183965;fill-opacity:1"/><path d="M31.836 30.113c-.258 0-.516.004-.773.004-.02-.101-.133 0-.149-.133-.016-.113.988-1.898 1.02-2.007.003-.016-.055-.235-.04-.293 2.563-2.457 4.993-5.055 7.52-7.551-.125.156-.078.258-.086.265-2.195 2.739-4.14 5.665-6.406 8.348-.352.418-1.258 1.258-1.086 1.367Zm0 0" style="stroke:none;fill-rule:nonzero;fill:#0b2447;fill-opacity:1"/><path d="M31.063 30.117c-.602-.004-1.204.012-1.801-.015.867-.813 1.773-1.59 2.633-2.418-.02.058.039.277.035.293-.028.109-1.032 1.894-1.02 2.007.016.133.13.032.152.133Zm0 0" style="stroke:none;fill-rule:nonzero;fill:#0f1014;fill-opacity:1"/><path d="M36.207 34.063c-.203.007-.395-.032-.594-.055-1.054-.137-2.11-.219-3.168-.309.024-.105.203-.203.301-.254a67.345 67.345 0 0 1 1.742-.93c.258-.136 1.254-.71 1.407-.726.39-.039 1.515.176 2.023.227-.176.32-1.711 1.726-1.766 1.843-.054.125.016.137.055.203Zm0 0" style="stroke:none;fill-rule:nonzero;fill:#183965;fill-opacity:1"/><path d="M40.953 19.906c-.113.215-.25.422-.363.637-.781 1.516-1.45 3.074-2.14 4.633-.067.156-.15.14-.153.148-.004.008.066.059.012.176-.352.809-1.465 3.184-1.61 3.766 0 .007-.094 0-.054.207.082.082 2 .289 2.285.336l-3.035 1.98c-.153.012-1.149.59-1.407.723-.004-.66 0-1.328-.234-1.953.117-.11.254-.258.363-.375 1.094-1.22 2.57-4.645 3.317-6.29.086.047.187-.058.234-.113.246-.312 1.309-2.09 1.777-2.71.223-.294.535-.489.559-.52.11-.137.226-.586.45-.64Zm0 0" style="stroke:none;fill-rule:nonzero;fill:#0b2447;fill-opacity:1"/><path d="M34.488 32.516c-.578.3-1.175.613-1.742.93.066-1.012 1.57-2.563.899-2.337.125-.23.433-.39.609-.55.23.625.226 1.293.234 1.957Zm0 0" style="stroke:none;fill-rule:nonzero;fill:#09132a;fill-opacity:1"/><path d="M32.746 33.445c-.098.051-.277.145-.3.254-.18-.015-1.493-.058-1.481-.136.484-.325 2.422-2.364 2.68-2.454.671-.226-.833 1.325-.899 2.336Zm0 0" style="stroke:none;fill-rule:nonzero;fill:#0f1014;fill-opacity:1"/><path d="M45.113 30.832c.102.04.203-.035.149.152-.117.164-1.36 1.442-1.668 1.774-.645.683-3.102 3.273-3.649 3.62-.922.587.09-.187.035-.472.747-.71 1.512-1.406 2.243-2.136.965-.965 1.812-2.122 2.89-2.938Zm0 0" style="stroke:none;fill-rule:nonzero;fill:#df7e13;fill-opacity:1"/><path d="M39.945 36.379c-.011.086-.12.14-.21.226a41.488 41.488 0 0 1-3.25 2.77c.214-.227.605-.82 1.027-1.266.758-.8 1.672-1.449 2.468-2.207.055.29-.957 1.059-.035.477Zm0 0" style="stroke:none;fill-rule:nonzero;fill:#df7e13;fill-opacity:1"/><path d="M45.113 30.832c-1.078.816-1.925 1.973-2.89 2.938-.73.73-1.496 1.425-2.243 2.136-.796.754-1.71 1.403-2.468 2.203l-.07-.097c1.476-1.703 3.226-5.559 3.988-7.746.039.004.148-.063.16-.063.734.117 2.988.406 3.523.629Zm0 0" style="stroke:none;fill-rule:nonzero;fill:#f4bf11;fill-opacity:1"/><path d="M37.512 38.11c-.422.445-.813 1.042-1.028 1.269-.16.168-.238.195-.297.254l-.058-.055c-.899.676-2.11 1.664-3.066 2.195-.59.329-.336.114-.036-.18.973-.945 3.442-2.46 4.414-3.581Zm0 0" style="stroke:none;fill-rule:nonzero;fill:#ee9d0b;fill-opacity:1"/><path d="M36.188 39.633c-.489.453-1.63 1.25-2.235 1.676-.226.164-1.25.71-1.305.765-.12.11-1.574 2.262-1.914 2.621l-.047-.117c.34-.66.676-1.324 1.016-1.984.453-.317.852-.711 1.324-1-.3.293-.554.508.035.18.958-.532 2.172-1.52 3.07-2.196Zm0 0" style="stroke:none;fill-rule:nonzero;fill:#f4bf11;fill-opacity:1"/><path d="M28.281 44.594c-.195.11-.383.234-.574.343-.953.528-1.96.965-2.879 1.57-.469.165-2.906 1.602-3.414 2.09-.297.137.426-.593.691-.929l.688-.52c.36-.332.844-.984 1.23-1.21.352-.208-.027.082.172.117.446-.145.313-.274.352-.293.012-.008.101.097.305-.035.613-.407-.04-.473.55-.739.285-.023-.023.496.54-.02-.016-.097-.176.153-.313-.179.469-.148.129-.055.16-.191.023-.114.383-.098.434-.168.05-.07-.114-.043-.094-.082.09-.188.289.199.223-.16.171.23.09-.004.18-.06.097-.054.124.259.155-.038.368-.063.024-.043-.347.031.379-.105.36-.273.414-.3.043-.024.094.074.207.034.055-.02.059-.152.133-.152.152-.008.433.102.566.094.203-.02 2.508-1.766 2.848-2.035.937-.746 4.433-3.762 5.125-4.508.476-.512 1.613-1.602 1.148-2.27-.015-.027-.062.008-.187-.164-.012-.015-.125-.222-.2-.336.075.004.024-.027.012-.086 1.387.856.762 1.66-.062 2.711-.989 1.266-4.52 4.176-5.926 5.203-.547.399-3.355 2.254-3.727 2.41-.113.048-.242-.05-.25-.042-.054.078.032.148-.011.195-.11.117-1.227.703-1.067.848.996-.332 1.848-1.082 2.88-1.309l.034.18Zm0 0" style="stroke:none;fill-rule:nonzero;fill:#ab1d46;fill-opacity:1"/><path d="M24.469 45.316c-.047.04-.606.72-.446.621-.386.227-.87.88-1.23 1.211l-.688.52c.352-.453.66-.922 1.04-1.355.285-.325.742-.704.976-.97.074.223.16.016.293-.081.004-.004.035.066.055.05Zm0 0" style="stroke:none;fill-rule:nonzero;fill:#232442;fill-opacity:1"/><path d="m41.184 30.18.109.129c-.93 2.628-2.145 5.222-3.813 7.468-.382-.082-.289.27-.605.032.07-.582 1.105-1.606 1.04-2.137-.009-.05-.458-.813-.52-.89-.133-.173-1.102-1.126-.989-.384.012.059.063.09-.011.086-.09-.14-.055-.195-.133-.242.187-.242-.024-.129-.055-.183-.039-.063-.11-.079-.055-.204.055-.117 1.59-1.52 1.766-1.843-.508-.051-1.633-.266-2.023-.227l3.03-1.98c.755.12 1.505.258 2.259.375Zm0 0" style="stroke:none;fill-rule:nonzero;fill:#d43562;fill-opacity:1"/><path d="M41.43 30.266c-.762 2.187-2.512 6.043-3.989 7.746-.972 1.12-3.441 2.636-4.414 3.582-.472.289-.87.683-1.324 1-.8.55-2.484 1.476-3.422 2l-.035-.18c-1.035.227-1.887.98-2.879 1.309-.164-.145.953-.727 1.063-.848.043-.047-.043-.117.011-.191.008-.012.137.09.25.039.375-.157 3.184-2.012 3.727-2.41 1.406-1.028 4.937-3.938 5.93-5.204.82-1.05 1.445-1.855.062-2.71-.117-.743.852.21.988.382.059.078.512.84.516.89.066.532-.969 1.556-1.039 2.138.32.238.223-.114.605-.032 1.668-2.246 2.883-4.84 3.813-7.468l-.105-.13c.273.044.23.087.242.087Zm0 0" style="stroke:none;fill-rule:nonzero;fill:#ab1d46;fill-opacity:1"/><path d="M36.785 34.984c-.05.164.043.309.016.414-.348 1.254-7.328 6.817-8.711 8.012-.492.3-.953.063-.992.293-.075 0-.078.129-.133.152-.113.04-.168-.058-.207-.035-.055.028-.035.196-.414.301.37-.074.71-.094.347-.031-.03.297-.058-.016-.156.039-.09.05-.004.289-.18.059.067.359-.132-.028-.222.16-.02.039.144.011.094.082-.051.07-.41.054-.434.168-.031.136.309.043-.16.191.133.332.297.082.312.18-.562.515-.254-.004-.539.02-.59.265.063.331-.55.738-.204.132-.294.027-.31.035-.034.02.095.148-.347.293-.199-.035.18-.325-.172-.117-.16.097.399-.583.446-.622.336-.312.336-.136.57-.32.418-.34.809-.754 1.23-1.082.016-.012.211.02.387-.133.074-.07.16-.441.266-.457.164-.023.012.133.113.106.363-.094.438-.344.54-.39.042-.02.038.081.144.023.093-.047-.028-.153.289-.192 0-.039-.41-.008.062-.117-.222-.348.762-.098 1.227-.93.336-.21.824-.523.867-.816.602-.18.469-.418.5-.438.062-.043.117.067.316-.082.082-.062.215-.34.227-.351.078-.067.238-.075.379-.2.066-.062.11-.19.117-.199.098-.086.477-.324.586-.425.2-.18.223-.38.238-.395 1.211-1.117 2.582-2.117 3.535-3.465.032-.039.11.02.133-.023.168-.274.047-.559.403-.606.12.172.168.133.187.16Zm0 0" style="stroke:none;fill-rule:nonzero;fill:#7f0d32;fill-opacity:1"/><path d="M36.395 34.484c.074.114.187.32.199.34-.356.047-.235.332-.399.606-.027.043-.105-.016-.133.023-.953 1.348-2.324 2.348-3.539 3.465-.015.016-.039.215-.234.395-.11.101-.492.34-.586.425-.012.008-.055.14-.121.2-.14.124-.3.132-.375.199-.016.011-.148.289-.23.351-.196.149-.254.04-.313.082-.031.02.102.258-.504.438-.039.293-.531.605-.863.816-.465.832-1.45.582-1.23.93-.47.11-.063.078-.063.117-.317.04-.192.145-.29.191.071-.3-.054-.386-.054-.445.008-.11 1.047-1.039 1.23-1.21.18-.165.274-.04.36-.333 1.11-.992 2.215-1.984 3.324-2.976 1.145-.895 2.07-2.032 3.16-3.004.04-.235.149-.407.27-.59.101-.156.176-.16.258-.262.078.043.039.102.129.242Zm0 0" style="stroke:none;fill-rule:nonzero;fill:#420c1f;fill-opacity:1"/><path d="M27.098 43.703c.039-.23.496.008.992-.293 1.383-1.195 8.363-6.758 8.707-8.008.031-.105-.067-.25-.016-.418.465.672-.676 1.758-1.148 2.274-.692.746-4.188 3.762-5.125 4.508-.34.27-2.645 2.015-2.852 2.03-.129.013-.414-.097-.562-.093Zm0 0" style="stroke:none;fill-rule:nonzero;fill:#ab1d46;fill-opacity:1"/><path d="M27.719 43.066c-.11.055-.106-.046-.149-.023-.097.047-.172.293-.535.387-.105.027.05-.13-.113-.102-.11.016-.192.387-.27.453-.172.157-.37.121-.386.133-.418.332-.809.742-1.23 1.082-.231.184-.231.008-.567.32.015-.015.008-.132.023-.148a42.382 42.382 0 0 0 1.516-1.383c.226-.219.441-.453.672-.676.617.008.582-.46.98-.488 0 .059.125.14.055.445Zm0 0" style="stroke:none;fill-rule:nonzero;fill:#2b0f19;fill-opacity:1"/><path d="M27.664 42.621c-.402.027-.367.496-.984.488 3.05-2.93 6.105-5.863 9.324-8.605-.121.184-.23.355-.27.59-1.09.972-2.015 2.11-3.156 3.004l-3.328 2.976c-.086.293-.176.168-.355.332-.188.172-1.227 1.102-1.23 1.211Zm0 0" style="stroke:none;fill-rule:nonzero;fill:#0f1014;fill-opacity:1"/></svg>